<?xml version="1.0" encoding="UTF-8" standalone="no"?>
<svg width="5e3" xmlns="http://www.w3.org/2000/svg" xmlns:xlink="http://www.w3.org/1999/xlink" height="6e3">
 <defs>
  <linearGradient id="linearGradient3244" y2=".38017" x2="1.1738" y1=".38017" x1=".24332">
   <stop id="stop3240" stop-color="#fffffc" offset="0"/>
   <stop id="stop3242" stop-color="#fffffc" stop-opacity="0" offset="1"/>
  </linearGradient>
  <linearGradient id="linearGradient3254" y2=".37315" x2="-.27761" gradientTransform="matrix(-1 0 0 1 132.33 .90369)" y1=".37315" x1="-1.7184">
   <stop id="stop3258" stop-color="#fff" stop-opacity=".662" offset="0"/>
   <stop id="stop3260" stop-color="#fffffc" stop-opacity="0" offset="1"/>
  </linearGradient>
  <linearGradient id="linearGradient3218" y2=".26708" x2="-.052827" gradientTransform="matrix(1.0024 0 0 1 100.19 0)" y1=".26708" x1="-.73515">
   <stop id="stop3248" stop-color="#00fffc" offset="0"/>
   <stop id="stop3250" stop-color="#00fffc" stop-opacity=".506" offset="1"/>
  </linearGradient>
 </defs>
 <g id="layer1">
  <path id="path3997" fill-rule="evenodd" fill="#f0f" d="m1342.7 3451.1l-609.6 1048.7c-259.38 458.93-224.94 1073.2 482.22 1006.7 145.47-13.677 2347.4 0 2347.4 0 922.98 91.169 814.85-597.14 582.31-943.79l-627.8-1101.1-2174.6-10.486z"/>
  <g stroke-linejoin="round" stroke-linecap="round">
   <path id="rect3162" opacity=".5" stroke-width="4" d="m3178 373.9l-1524.2 1.3799c-30.8 0.28928-58.886 21.004-70.64 53.818-11.754 32.813-4.8909 71.348 16.762 96.596 116.9 132.28 160.05 235.77 179.59 351.88 19.544 116.12 11.779 251.06 13.17 426.4l8.3811 1057-1205.7 2080.9c-0.83179 1.353-1.6302 2.7344-2.3946 4.1401-157.12 301.91-188.08 610.8-102.97 848.66 84.574 236.37 291.31 389.83 556.74 373.96 1.6793-0.099609 3.1054 0.11475 4.7892 0l2794.5 2.7603c285.18-1.3823 501.36-164.62 574.7-415.36 72.805-248.93 7.669-562.61-202.34-870.74l-3.5918-6.8999-1141-2014.7-21.552-1058.4c-0.040527-5.1254 0.052979-8.7429 0-13.799 0-0.89258 0.023682-1.8676 0-2.76-1.8247-166.46-9.8931-297.42 7.1838-409.84 17.698-116.51 58.832-219.92 173.61-354.64 21.805-25.426 27.625-63.658 15.565-96.596s-39.622-54.085-70.64-53.818zm-153.25 176.63c-58.797 100.13-101.14 199.31-116.14 298.07-17.514 115.3-13.653 231.18-10.776 354.64h-341.23c-2.7915-0.17602-5.5896-0.17602-8.3811 0-42.32 2.6678-74.152 43.68-71.838 92.456 2.3142 48.776 37.899 86.844 80.219 84.176h343.62l14.367 673.41h-357.99c-2.7915-0.17627-5.5896-0.17627-8.3811 0-42.32 2.6675-74.152 43.68-71.838 92.456 2.3142 48.776 37.899 86.844 80.219 84.176h361.58l3.5918 164.21c0.30151 16.156 4.4429 31.907 11.973 45.538l272.98 481.6h-367.57c-2.792-0.17627-5.5896-0.17627-8.3809 0-42.32 2.6677-74.152 43.68-71.838 92.456 2.3142 48.775 37.899 86.844 80.219 84.176h417.86c15.264 0.24902 29.478-4.6423 41.905-13.8l300.52 531.28h-353.2c-2.3933-0.13013-4.7903-0.13013-7.1836 0-42.32 2.2861-75.019 43.68-73.035 92.456 1.9836 48.775 37.899 86.463 80.219 84.176h417.86c11.019 0.17944 21.349-3.4016 31.13-8.28l290.94 513.34h-331.65c-2.3931-0.1294-4.7903-0.1294-7.1836 0-42.32 2.2861-75.019 43.68-73.035 92.456 1.9836 48.775 37.899 86.462 80.219 84.176h417.86c4.0554 0.066406 8.032-0.72607 11.973-1.3799l5.9866 9.6597c1.1057 2.3608 2.3042 4.6641 3.5918 6.9004 191.71 278.39 233.58 534.28 181.99 710.67-51.591 176.39-193.1 294.15-431.03 295.31l-2798.1-2.7593c-1.5962-0.057617-3.193-0.057617-4.7892 0-216.09 14.626-348.76-91.908-410.67-264.95-61.915-173.04-44.548-424.92 93.389-689.97l1216.5-2101.6c8.6111-14.664 13.2-31.972 13.17-49.678l-8.3809-1083.3c-1.3294-167.53 8.0623-310.65-16.762-458.14-16.405-97.468-59.25-194.66-118.53-292.55l1214.1-1.3799z"/>
   <g stroke-width="8">
    <path id="path2388" opacity=".25" d="m1654 462.61c250.32 283.27 212.53 497.42 215.26 840.29l8.5931 1082.8-1219.2 2105c-295.06 566.96-95.45 1121.7 388.49 1088.9l2798.5 3.2588c523.1-2.5356 714.09-561.2 308.71-1149.9l-1156.5-2042.1-21.767-1084.5c-2.7207-342.88-43.894-556.19 201.88-844.69l-1523.9 0.8969z" stroke="#000" fill="none"/>
    <path id="path3181" opacity=".25" fill="url(#linearGradient3218)" d="m1656.7 462.61c250.91 283.27 213.04 497.42 215.76 840.29l8.613 1082.8-1222.1 2105c-295.75 566.96-95.676 1121.7 389.41 1088.9l2805.1 3.2588c524.34-2.5356 715.78-561.2 309.44-1149.9l-1159.3-2042.1-21.819-1084.5c-2.727-342.88-43.998-556.19 202.36-844.69l-1527.5 0.8969z"/>
   </g>
  </g>
  <g fill-rule="evenodd">
   <path id="path3220" opacity=".665" fill="url(#linearGradient3244)" d="m1142.5 5349.2c-269.2 28.865-482.62-186.39-309.35-566.27l1237.4-2307-9.0984-1531c0.86157-104.86-10.705-209.73-81.887-314.6 155.81 84.621 296.91 174.89 309.35 314.6l18.197 1614.9c4.0874 362.74-484.62 1112.5-699.64 1550.8-292.66 596.54-679.97 1039-464.97 1238.6z"/>
   <path id="path3252" fill="url(#linearGradient3254)" d="m3845.8 5330c269.2 28.865 373.44-196.87 200.17-576.76l-1237.4-2307 9.0986-1531c-0.86133-104.86 10.705-209.73 81.887-314.6-155.81 84.62-196.83 174.89-209.27 314.6l-9.0984 1604.4c-2.0571 362.77 521.02 1081 736.04 1519.3 292.66 596.54 643.58 1091.4 428.58 1291.1z"/>
  </g>
 </g>
</svg>
