<?xml version="1.0" encoding="UTF-8" standalone="no"?>
<!DOCTYPE svg  PUBLIC '-//W3C//DTD SVG 1.1//EN'  'http://www.w3.org/Graphics/SVG/1.1/DTD/svg11.dtd'>
<svg xmlns="http://www.w3.org/2000/svg" xml:space="preserve" height="600px" width="600px" version="1.1" y="0px" x="0px" xmlns:xlink="http://www.w3.org/1999/xlink" viewBox="0 0 600 600" enable-background="new 0 0 600 600">
<g id="Layer_2">
	<rect width="600" height="600" fill="#C7F1FF"/>
</g>
<g id="Layer_3">
	<polygon points="169.11 446.69 250.56 600 600 600 600 372.47 388.48 149.82 333.47 231.43 261.53 308.88 219.58 377.57" fill="#53CAEA"/>
</g>
<g id="Layer_1">
				<path d="m276.84 285.02c39.902 21.768 90.075 7.016 111.84-32.886 21.768-39.902 7.015-90.074-32.887-111.84s-90.075-7.016-111.84 32.886-7.01 90.08 32.89 111.84z" fill="#F9ED32"/>
				<path d="m280.43 301.35c44.41 18.011 96.396 0.192 119.89-42.867 25.266-46.314 8.143-104.55-38.171-129.82s-104.55-8.143-129.82 38.17c-23.491 43.059-10.335 96.416 28.848 124.01l-27.384 50.195 0.222 0.121c-5.505-3.003-12.402-0.975-15.405 4.53l-49.341 90.442c-3.003 5.505-0.975 12.402 4.53 15.405l18.809 10.261c5.505 3.003 12.402 0.975 15.405-4.53l49.341-90.442c3.003-5.505 0.975-12.402-4.53-15.405l0.221 0.121 27.38-50.19zm75.37-161.06c39.902 21.768 54.655 71.941 32.887 111.84-21.768 39.902-71.941 54.655-111.84 32.886s-54.655-71.941-32.886-111.84 71.94-54.65 111.84-32.89z" fill="#414042"/>
			<path d="m341.01 153.8c36.249 19.776 49.604 65.193 29.828 101.44-5.525 10.127-13.053 18.463-21.822 24.793 14.223-6.475 26.544-17.443 34.604-32.217 19.776-36.249 6.421-81.667-29.828-101.44-26.122-14.251-57.003-11.293-79.621 5.035 20.68-9.4 45.37-9.31 66.84 2.4z" fill="#fff"/>
		<path d="m247.55 355.4l-7.013-3.826c4.961 2.707 6.789 8.923 4.082 13.884l-44.469 81.513c-2.707 4.961-8.923 6.789-13.884 4.082l7.013 3.826c4.961 2.707 11.177 0.879 13.884-4.082l44.469-81.513c2.71-4.96 0.89-11.18-4.08-13.88z" fill="#808285"/>
</g>
</svg>
