<?xml version="1.0" encoding="UTF-8" standalone="no"?>
<svg
   xmlns:dc="http://purl.org/dc/elements/1.1/"
   xmlns:cc="http://creativecommons.org/ns#"
   xmlns:rdf="http://www.w3.org/1999/02/22-rdf-syntax-ns#"
   xmlns:svg="http://www.w3.org/2000/svg"
   xmlns="http://www.w3.org/2000/svg"
   viewBox="0 0 1000 707.5"
   height="707.5"
   width="1000"
   xml:space="preserve"
   version="1.1"
   id="svg2"><metadata
     id="metadata8"><rdf:RDF><cc:Work
         rdf:about=""><dc:format>image/svg+xml</dc:format><dc:type
           rdf:resource="http://purl.org/dc/dcmitype/StillImage" /></cc:Work></rdf:RDF></metadata><defs
     id="defs6"><clipPath
       id="clipPath16"
       clipPathUnits="userSpaceOnUse"><path
         id="path18"
         d="M 0,566 800,566 800,0 0,0 0,566 Z" /></clipPath></defs><g
     transform="matrix(1.25,0,0,-1.25,0,707.5)"
     id="g10"><g
       id="g12"><g
         clip-path="url(#clipPath16)"
         id="g14"><g
           transform="translate(614.0107,402.46)"
           id="g20"><path
             id="path22"
             style="fill:#364b5e;fill-opacity:1;fill-rule:nonzero;stroke:none"
             d="m 0,0 -33.403,0 0,18.684 -46.994,0 0,-18.684 -64.543,0 -20.95,41.897 -92.849,0 -23.87,-41.897 -38.975,0 0,18.684 -89.454,0 0,-18.684 -16.983,0 c -20.638,0 -37.368,-16.73 -37.368,-37.367 l 0,-206.083 c 0,-20.637 16.73,-37.367 37.368,-37.367 l 428.021,0 c 20.638,0 37.367,16.73 37.367,37.367 l 0,206.083 C 37.367,-16.73 20.638,0 0,0" /></g><path
           id="path24"
           style="fill:#ff6705;fill-opacity:1;fill-rule:nonzero;stroke:none"
           d="m 159.944,192.979 480.111,0 0,135.88 -480.111,0 0,-135.88 z" /><g
           transform="translate(505.3066,262.0547)"
           id="g26"><path
             id="path28"
             style="fill:#364b5e;fill-opacity:1;fill-rule:nonzero;stroke:none"
             d="m 0,0 c 0,-57.225 -46.387,-103.609 -103.608,-103.609 -57.222,0 -103.609,46.384 -103.609,103.609 0,57.219 46.387,103.606 103.609,103.606 C -46.387,103.606 0,57.219 0,0" /></g><g
           transform="translate(401.6982,353.7705)"
           id="g30"><path
             id="path32"
             style="fill:#5db1af;fill-opacity:1;fill-rule:nonzero;stroke:none"
             d="m 0,0 c -50.573,0 -91.719,-41.145 -91.719,-91.716 0,-50.578 41.146,-91.721 91.719,-91.721 50.574,0 91.72,41.143 91.72,91.721 C 91.72,-41.145 50.574,0 0,0 m 0,-207.214 c -63.685,0 -115.498,51.811 -115.498,115.498 0,63.683 51.813,115.495 115.498,115.495 63.688,0 115.498,-51.812 115.498,-115.495 0,-63.687 -51.81,-115.498 -115.498,-115.498" /></g><g
           transform="translate(246.5674,292.3413)"
           id="g34"><path
             id="path36"
             style="fill:#364b5e;fill-opacity:1;fill-rule:nonzero;stroke:none"
             d="m 0,0 -46.708,0 c -10.303,0 -18.684,8.381 -18.684,18.684 l 0,41.047 c 0,10.302 8.381,18.684 18.684,18.684 l 46.708,0 c 10.303,0 18.684,-8.382 18.684,-18.684 l 0,-41.047 C 18.684,8.381 10.303,0 0,0" /></g><g
           transform="translate(199.8594,360.5645)"
           id="g38"><path
             id="path40"
             style="fill:#5db1af;fill-opacity:1;fill-rule:nonzero;stroke:none"
             d="m 0,0 c -4.683,0 -8.493,-3.81 -8.493,-8.492 l 0,-41.048 c 0,-4.682 3.81,-8.492 8.493,-8.492 l 46.708,0 c 4.683,0 8.493,3.81 8.493,8.492 l 0,41.048 C 55.201,-3.81 51.391,0 46.708,0 L 0,0 Z" /></g><g
           transform="translate(378.7637,326.6836)"
           id="g42"><path
             id="path44"
             style="fill:#ffffff;fill-opacity:1;fill-rule:nonzero;stroke:none"
             d="m 0,0 c 5.857,-5.858 -6.895,-12.101 -18.609,-23.816 -11.717,-11.716 -17.959,-24.468 -23.817,-18.61 -5.858,5.858 -1.109,20.104 10.606,31.82 C -20.104,1.109 -5.857,5.858 0,0" /></g></g></g></g></svg>